<svg xmlns="http://www.w3.org/2000/svg" viewBox="0 0 1299.4 139.64"><defs><style>.a{fill:#8fd5e5;}</style></defs><title>City_Final</title><path class="a" d="M1017.42,81.77a7.58,7.58,0,0,0-2.15,5.3,1.44,1.44,0,0,0,1.45,1.44h37.89a1.41,1.41,0,0,0,1-.44,1.46,1.46,0,0,0,.41-1,10.51,10.51,0,0,0-10.16-10.18A13.89,13.89,0,0,0,1029.09,72a12.79,12.79,0,0,0-10-5.16,17,17,0,0,0-29.87,3.38,9.15,9.15,0,0,0-7.86,9,1.45,1.45,0,0,0,1.45,1.45h35.89A7.87,7.87,0,0,0,1017.42,81.77Zm17.09-8a10.92,10.92,0,0,1,9.38,5.25,1.47,1.47,0,0,0,1.3.69h.37a7.6,7.6,0,0,1,7.41,5.89h-34.58a4.7,4.7,0,0,1,4.34-3.26,1.43,1.43,0,0,0,1.33-1A11,11,0,0,1,1034.51,73.8Zm-50.09,4A6.26,6.26,0,0,1,990.3,73a1.44,1.44,0,0,0,1.34-1,14.1,14.1,0,0,1,25.42-3,1.47,1.47,0,0,0,1.31.69h.47a9.89,9.89,0,0,1,7.69,3.68,14,14,0,0,0-4,4.4Z"/><path class="a" d="M1126,59.07a1.43,1.43,0,0,0,.39-1.09,11.64,11.64,0,0,0-11.58-10.8,11.17,11.17,0,0,0-2.31.23,11.5,11.5,0,0,0-8.57-3.78,11.65,11.65,0,0,0-5.44,1.35,14.56,14.56,0,0,0-22,6.37,8,8,0,0,0-6.57,6.48,1.47,1.47,0,0,0,.32,1.18,1.45,1.45,0,0,0,1.11.52h53.59A1.44,1.44,0,0,0,1126,59.07Zm-52.6-2.44a5.07,5.07,0,0,1,4.18-2.48,1.43,1.43,0,0,0,1.33-1,11.66,11.66,0,0,1,18.54-5.32,1.44,1.44,0,0,0,1.72.1,8.74,8.74,0,0,1,11.66,2,1.46,1.46,0,0,0,1.55.51,8.6,8.6,0,0,1,2.43-.35,8.75,8.75,0,0,1,8.44,6.56Z"/><path class="a" d="M1253.69,87.18l-15.28-8.83a1.45,1.45,0,1,0-1.45,2.51l15.28,8.82a1.39,1.39,0,0,0,.73.2,1.45,1.45,0,0,0,.72-2.7Z"/><path class="a" d="M1253.69,96.09l-15.28-8.82a1.45,1.45,0,1,0-1.45,2.51l15.28,8.82a1.49,1.49,0,0,0,.73.2,1.45,1.45,0,0,0,.72-2.71Z"/><path class="a" d="M1253.69,105l-15.28-8.82A1.45,1.45,0,1,0,1237,98.7l15.28,8.82a1.47,1.47,0,0,0,.73.19,1.45,1.45,0,0,0,.72-2.7Z"/><path class="a" d="M1253.69,113.93l-15.28-8.82a1.45,1.45,0,1,0-1.45,2.5l15.28,8.83a1.47,1.47,0,0,0,.73.19,1.45,1.45,0,0,0,.72-2.7Z"/><path class="a" d="M1253.69,122.85,1238.41,114a1.45,1.45,0,1,0-1.45,2.51l15.28,8.83a1.47,1.47,0,0,0,.73.19,1.45,1.45,0,0,0,.72-2.7Z"/><path class="a" d="M1253.69,131.77l-15.28-8.83a1.45,1.45,0,1,0-1.45,2.51l15.28,8.82a1.39,1.39,0,0,0,.73.2,1.45,1.45,0,0,0,.72-2.7Z"/><path class="a" d="M1298.68,103.3l-26-15h0l-.16-.08h0l-.15-.05h0l-.14,0h-.43l-.13,0h0l-.15.05h0l-.15.08h0l-11.59,6.67V82.87a1.45,1.45,0,0,0-.73-1.25l-26-15h0l-.16-.08h0l-.16,0h0l-.13,0h-.43l-.13,0h0l-.14,0h0l-.16.08h0l-11.75,6.75V59.82a1.45,1.45,0,0,0-.72-1.26l-26-15h0l-.16-.08h0l-.15-.06h0l-.13,0H1192l-.14,0h0l-.15.06h0a.8.8,0,0,0-.16.08h0l-26,15a1.45,1.45,0,0,0-.72,1.26V73.55l-12.1-7h0l-.15-.08h0l-.15,0h0l-.13,0h-.43l-.13,0h0l-.15,0h0l-.16.08h0l-26,15a1.47,1.47,0,0,0-.72,1.25V95.56l-12.67-7.29h0l-.16-.08h0l-.15-.05h0l-.13,0h-.44l-.13,0h0l-.15.05h0l-.16.08h0l-26,15a1.45,1.45,0,0,0-.72,1.26v33.33a1.45,1.45,0,1,0,2.89,0v-32.5L1109.54,92v45.86a1.45,1.45,0,0,0,2.9,0V92l11.7,6.73a1.28,1.28,0,0,0,.24.11v4.9l-6.47-3.73a1.45,1.45,0,1,0-1.45,2.5l7.92,4.58v5.57l-6.47-3.74a1.45,1.45,0,1,0-1.45,2.51l7.92,4.57v5.58l-6.47-3.74a1.45,1.45,0,1,0-1.45,2.51l7.92,4.57v5.58l-6.47-3.74a1.45,1.45,0,0,0-1.45,2.51l7.92,4.57v4.22a1.45,1.45,0,1,0,2.9,0V115.9a1.45,1.45,0,0,0,0-1.24V83.71l23.14-13.36v67.81a1.45,1.45,0,1,0,2.89,0V70.35l11.38,6.54v5l-6.18-3.57a1.45,1.45,0,1,0-1.45,2.51l7.63,4.4v5.57l-6.18-3.56a1.45,1.45,0,1,0-1.45,2.51l7.63,4.4v5.57l-6.18-3.56a1.45,1.45,0,1,0-1.45,2.51l7.63,4.4v5.57l-6.18-3.56a1.45,1.45,0,1,0-1.45,2.5l7.63,4.41v5.57l-6.18-3.57a1.45,1.45,0,1,0-1.45,2.51l7.63,4.4v5.58l-6.18-3.57a1.45,1.45,0,1,0-1.45,2.51l7.63,4.4v8.34a1.45,1.45,0,1,0,2.89,0V60.66l23.14-13.36v90.89a1.45,1.45,0,0,0,2.9,0V47.3l23.14,13.36v77.53a1.45,1.45,0,1,0,2.89,0V76.69l11-6.34v67.81a1.45,1.45,0,1,0,2.9,0V70.35l23.14,13.36V97a1.41,1.41,0,0,0,0,1.12v40a1.45,1.45,0,0,0,2.9,0V98.28L1270.47,92v45.86a1.45,1.45,0,0,0,2.9,0V92l23.13,13.36v32.5a1.45,1.45,0,0,0,2.9,0V104.56A1.45,1.45,0,0,0,1298.68,103.3Z"/><path class="a" d="M1293.49,108.86,1278.2,100a1.45,1.45,0,1,0-1.45,2.5l15.29,8.83a1.45,1.45,0,0,0,1.45-2.51Z"/><path class="a" d="M1293.49,117.78,1278.2,109a1.45,1.45,0,1,0-1.45,2.51l15.29,8.83a1.45,1.45,0,0,0,1.45-2.51Z"/><path class="a" d="M1293.49,126.7l-15.29-8.83a1.45,1.45,0,1,0-1.45,2.51l15.29,8.83a1.45,1.45,0,0,0,1.45-2.51Z"/><path class="a" d="M1293.49,135.62l-15.29-8.83a1.45,1.45,0,0,0-1.45,2.51l15.29,8.82a1.38,1.38,0,0,0,.72.2,1.45,1.45,0,0,0,.73-2.7Z"/><path class="a" d="M1214.15,64.09l-15.29-8.83a1.45,1.45,0,0,0-1.44,2.51l15.28,8.83a1.45,1.45,0,0,0,1.45-2.51Z"/><path class="a" d="M1214.15,73l-15.29-8.83a1.45,1.45,0,0,0-1.44,2.51l15.28,8.83a1.45,1.45,0,0,0,1.45-2.51Z"/><path class="a" d="M1214.15,81.93l-15.29-8.83a1.45,1.45,0,0,0-1.44,2.51l15.28,8.82a1.38,1.38,0,0,0,.72.2,1.45,1.45,0,0,0,.73-2.7Z"/><path class="a" d="M1214.15,90.84,1198.86,82a1.45,1.45,0,0,0-1.44,2.51l15.28,8.82a1.48,1.48,0,0,0,.72.2,1.45,1.45,0,0,0,.73-2.71Z"/><path class="a" d="M1214.15,99.76l-15.29-8.82a1.44,1.44,0,1,0-1.44,2.5l15.28,8.83a1.45,1.45,0,0,0,1.45-2.51Z"/><path class="a" d="M1214.15,108.68l-15.29-8.83a1.45,1.45,0,0,0-1.44,2.51l15.28,8.83a1.45,1.45,0,0,0,1.45-2.51Z"/><path class="a" d="M1214.15,117.6l-15.29-8.83a1.45,1.45,0,0,0-1.44,2.51l15.28,8.83a1.45,1.45,0,0,0,1.45-2.51Z"/><path class="a" d="M1214.15,126.52l-15.29-8.83a1.45,1.45,0,0,0-1.44,2.51L1212.7,129a1.38,1.38,0,0,0,.72.2,1.45,1.45,0,0,0,.73-2.7Z"/><path class="a" d="M1175,62.13a1.45,1.45,0,0,0-1.45,1.45v74.61a1.45,1.45,0,0,0,2.9,0V63.58A1.45,1.45,0,0,0,1175,62.13Z"/><path class="a" d="M1184.12,56.23a1.45,1.45,0,0,0-1.45,1.45v80.51a1.45,1.45,0,1,0,2.89,0V57.68A1.44,1.44,0,0,0,1184.12,56.23Z"/><path class="a" d="M1134.43,85.63a1.45,1.45,0,0,0-1.45,1.45V138a1.45,1.45,0,0,0,2.9,0V87.08A1.45,1.45,0,0,0,1134.43,85.63Z"/><path class="a" d="M1143.51,79.74a1.44,1.44,0,0,0-1.44,1.45V138a1.45,1.45,0,0,0,2.89,0V81.19A1.45,1.45,0,0,0,1143.51,79.74Z"/><path class="a" d="M1093.64,107.51a1.45,1.45,0,0,0-1.45,1.45v28.86a1.45,1.45,0,1,0,2.9,0V109A1.45,1.45,0,0,0,1093.64,107.51Z"/><path class="a" d="M1102.73,101.62a1.45,1.45,0,0,0-1.45,1.45v34.75a1.45,1.45,0,1,0,2.9,0V103.07A1.45,1.45,0,0,0,1102.73,101.62Z"/><path class="a" d="M956.4,88.77a16.38,16.38,0,0,0-10.21,3.52,22.6,22.6,0,0,0-43.4-.05,16.55,16.55,0,0,0-26.69,13.08,16.57,16.57,0,0,0,15.1,16.48v16.39a1.45,1.45,0,1,0,2.89,0V121.8a16.6,16.6,0,0,0,13.13-8.66,22.56,22.56,0,0,0,15.81,8v17.07a1.45,1.45,0,1,0,2.9,0V121.12a22.54,22.54,0,0,0,15.86-8A16.62,16.62,0,0,0,955,121.8v16.39a1.45,1.45,0,1,0,2.89,0V121.8a16.55,16.55,0,0,0-1.44-33Zm-63.76,6.48a1.44,1.44,0,0,0-1.44,1.45v3.11l-1.34-1.34a1.45,1.45,0,0,0-2.05,2l3.39,3.39v6.33L885,104.06a1.45,1.45,0,0,0-2,2l8.23,8.23v4.56a13.65,13.65,0,0,1,1.44-27.22,13.53,13.53,0,0,1,9.46,3.8,22.73,22.73,0,0,0-.22,3.1,22.5,22.5,0,0,0,.75,5.78,1.23,1.23,0,0,0-.22-.29,1.44,1.44,0,0,0-2,0l-6.27,6.26V104l3.47-3.47a1.44,1.44,0,0,0,0-2,1.46,1.46,0,0,0-2,0l-1.42,1.43V96.7A1.45,1.45,0,0,0,892.64,95.25Zm1.45,23.64v-4.47l8.32-8.32a1.42,1.42,0,0,0,.42-1,22.75,22.75,0,0,0,2.45,5.43A13.71,13.71,0,0,1,894.09,118.89Zm31.84-.67v-5l15.39-15.39a1.46,1.46,0,0,0,0-2,1.44,1.44,0,0,0-2.05,0l-13.34,13.34v-7.44l8.31-8.32a1.44,1.44,0,0,0,0-2,1.46,1.46,0,0,0-2,0l-6.26,6.27V91.2l3.47-3.47a1.45,1.45,0,0,0-2-2l-1.42,1.42V83.91a1.45,1.45,0,1,0-2.9,0V87l-1.33-1.34a1.46,1.46,0,0,0-2.05,0,1.44,1.44,0,0,0,0,2L923,91.11v6.33l-6.18-6.18a1.45,1.45,0,0,0-2.05,2l8.23,8.23V109L909.78,95.73a1.45,1.45,0,1,0-2,2l15.3,15.3v5.14a19.7,19.7,0,1,1,2.9,0Zm31.91.67v-4.56l8.23-8.23a1.45,1.45,0,1,0-2.05-2l-6.18,6.18v-6.33l3.39-3.39a1.45,1.45,0,0,0-2.05-2l-1.34,1.34V96.7a1.45,1.45,0,1,0-2.89,0v3.2l-1.42-1.43a1.46,1.46,0,0,0-2,0,1.44,1.44,0,0,0,0,2L955,104v6.33l-6.27-6.26a1.45,1.45,0,0,0-2,2l8.32,8.32v4.47a13.7,13.7,0,0,1-11.22-8.49,22.47,22.47,0,0,0,3.34-11.83,23.36,23.36,0,0,0-.2-3,13.52,13.52,0,0,1,9.53-3.87,13.65,13.65,0,0,1,1.44,27.22Z"/><path class="a" d="M1046.21,114.58a12.69,12.69,0,0,0-2.63.28L1040,104.25a1.44,1.44,0,0,0-1.37-1H1034a1.45,1.45,0,1,0,0,2.89h3.6l1.75,5.18c-1.06,1.7-5.1,8.16-5.91,9.41-.16.25-.32.48-.48.71a1.43,1.43,0,0,0-1-.45h-2.16a1.44,1.44,0,0,0-1.23.68l-4.67-13.58h.15a1.45,1.45,0,1,0,0-2.89h-5.25a2.28,2.28,0,0,0-2.24,1.88c0,.06,0,.11,0,.17s0,.07,0,.1v.24a1.45,1.45,0,0,0,1.45,1.37h.07a1.46,1.46,0,0,0,1.26-.87h1.52l1.14,3.32-3.75,5a12.53,12.53,0,1,0,4.87,16,1.46,1.46,0,0,0,1.25.71h2.48a1.45,1.45,0,0,0,1.37-1l.35-1a4,4,0,0,0,3.76-4c0-.15,0-.29,0-.44a16.13,16.13,0,0,0,1.64-1.66,13.13,13.13,0,0,0-.17,2.1,12.53,12.53,0,1,0,12.53-12.53Zm-27.54,5.94a9.77,9.77,0,0,1,1.9,3l-4.31.22Zm-7,16.22a9.63,9.63,0,1,1,0-19.26,9.53,9.53,0,0,1,4.75,1.25l-3.9,5.17-.89,0a3.16,3.16,0,0,0,0,6.32l9,.45A9.64,9.64,0,0,1,1011.64,136.74Zm9.61-8.89-9.53-.47h-.08a.27.27,0,0,1,0-.54h.08l9.53-.47c0,.24,0,.49,0,.74S1021.27,127.61,1021.25,127.85Zm-.82-9.66,2.61-3.46,2.93,8.5-2.37.12A12.51,12.51,0,0,0,1020.43,118.19Zm6.55,8.4-.53,1.52-2.31-.12c0-.29,0-.58,0-.88s0-.59,0-.88l3-.15Zm3.81-2.55h0l0-.13h.12A.93.93,0,0,1,1030.79,124Zm9.74-9.16.31.91a13.41,13.41,0,0,0-1.34.74Zm5.68,21.86a9.63,9.63,0,0,1-4.43-18.18l3,9a1.46,1.46,0,0,0,1.38,1,1.48,1.48,0,0,0,.46-.08,1.45,1.45,0,0,0,.91-1.83l-3.06-9a9.4,9.4,0,0,1,1.69-.15,9.63,9.63,0,0,1,0,19.26Z"/><path class="a" d="M148.33,5.25h-1.2V4a1.45,1.45,0,1,0-2.9,0V5.25H143a1.45,1.45,0,1,0,0,2.89h1.2V9.35a1.45,1.45,0,0,0,2.9,0V8.14h1.2a1.45,1.45,0,1,0,0-2.89Z"/><path class="a" d="M408.6,109.31h-.82L405,105.78a1.43,1.43,0,0,0-1.14-.55h-8.64V83.65h.07a1.45,1.45,0,1,0,0-2.89h-.81l-2.76-3.53a1.46,1.46,0,0,0-1.14-.55H387V72.92h3.31a1.45,1.45,0,0,0,0-2.9h-.16V51.32h.16a1.45,1.45,0,0,0,0-2.89h-4.47V34.74a9.93,9.93,0,0,0-8.47-9.8v-9.8a1.45,1.45,0,1,0-2.9,0v9.8a9.92,9.92,0,0,0-8.46,9.8V48.43h-4.47a1.45,1.45,0,1,0,0,2.89h.16V70h-.16a1.45,1.45,0,1,0,0,2.9h3.31v3.76h-3.59a1.43,1.43,0,0,0-1.14.55l-2.76,3.53h-.82a1.45,1.45,0,1,0,0,2.89h.08v21.58H348a1.46,1.46,0,0,0-1.14.55l-2.76,3.53h-.82a1.45,1.45,0,0,0,0,2.9h.08v26a1.45,1.45,0,0,0,1.45,1.45h62.28a1.45,1.45,0,0,0,1.45-1.45v-26h.08a1.45,1.45,0,0,0,0-2.9ZM383,36.19V48.43h-2.79V36.19Zm-7-8.46a7,7,0,0,1,6.87,5.57H369.06A7,7,0,0,1,375.93,27.73Zm2.4,8.46V48.43h-4.79V36.19Zm-9.42,0h2.8V48.43h-2.8ZM364.6,70V51.32h22.66V70H364.6Zm19.51,2.9v3.76H367.76V72.92ZM362,79.57h27.92l.93,1.19H361.05Zm-2.45,4.08h32.82v21.54H359.52Zm-10.83,24.48h54.49l.92,1.18H347.76Zm12.94,28.61h-9.71V122.12a4.86,4.86,0,0,1,9.71,0Zm19.15,0h-9.7V122.12a4.85,4.85,0,1,1,9.7,0Zm19.16,0h-9.7V122.12a4.85,4.85,0,0,1,9.7,0Zm5.69,0h-2.79V122.12a7.75,7.75,0,0,0-15.5,0v14.62h-3.66V122.12a7.75,7.75,0,0,0-15.5,0v14.62h-3.66V122.12a7.75,7.75,0,0,0-15.5,0v14.62h-2.78V112.21h59.39Z"/><path class="a" d="M375.93,69.26a8.59,8.59,0,1,0-8.58-8.59A8.6,8.6,0,0,0,375.93,69.26ZM374.5,55.17a1.49,1.49,0,0,0,0,.21v5.55a1.44,1.44,0,0,0,1.45,1.44H380a1.45,1.45,0,1,0,0-2.89h-2.63v-4.1a1.49,1.49,0,0,0,0-.21,5.68,5.68,0,1,1-2.86,0Z"/><path class="a" d="M363.11,85.66a1.45,1.45,0,0,0-1.45,1.45v5.4a1.45,1.45,0,1,0,2.89,0v-5.4A1.44,1.44,0,0,0,363.11,85.66Z"/><path class="a" d="M367.38,85.66a1.45,1.45,0,0,0-1.45,1.45v5.4a1.45,1.45,0,0,0,2.9,0v-5.4A1.45,1.45,0,0,0,367.38,85.66Z"/><path class="a" d="M371.66,85.66a1.45,1.45,0,0,0-1.45,1.45v5.4a1.45,1.45,0,0,0,2.9,0v-5.4A1.45,1.45,0,0,0,371.66,85.66Z"/><path class="a" d="M375.93,85.66a1.45,1.45,0,0,0-1.45,1.45v5.4a1.45,1.45,0,1,0,2.9,0v-5.4A1.45,1.45,0,0,0,375.93,85.66Z"/><path class="a" d="M380.21,85.66a1.45,1.45,0,0,0-1.45,1.45v5.4a1.45,1.45,0,1,0,2.9,0v-5.4A1.45,1.45,0,0,0,380.21,85.66Z"/><path class="a" d="M384.48,85.66A1.45,1.45,0,0,0,383,87.11v5.4a1.45,1.45,0,0,0,2.9,0v-5.4A1.45,1.45,0,0,0,384.48,85.66Z"/><path class="a" d="M388.76,85.66a1.45,1.45,0,0,0-1.45,1.45v5.4a1.45,1.45,0,0,0,2.9,0v-5.4A1.45,1.45,0,0,0,388.76,85.66Z"/><path class="a" d="M147.55,79.87H134.16V69.51a1.45,1.45,0,0,0-1.45-1.45h-6.08V47s0-.08,0-.11v0l0-.14v0a.58.58,0,0,0-.06-.17h0L116.34,23.21V16a1.45,1.45,0,0,0-2.9,0v7.18L103.26,46.48h0l-.06.17v0a.35.35,0,0,0,0,.14.07.07,0,0,0,0,0,.37.37,0,0,0,0,.11s0,0,0,.06v21H97.06a1.45,1.45,0,0,0-1.45,1.45V79.87H82.23a1.45,1.45,0,0,0-1.45,1.45v56.87a1.45,1.45,0,0,0,1.45,1.45h65.32a1.45,1.45,0,0,0,1.45-1.45V81.32A1.45,1.45,0,0,0,147.55,79.87ZM95.61,136.74H83.67v-54H95.61ZM123,45.61h-2.1L119,36.5Zm-8-14.48,3,14.48h-6Zm-4,5.11L109,45.61H106.8ZM106,48.51h17.7V68.06H106Zm13.77,88.23h-9.36v-15.2h9.36Zm11.46-55.42v55.42h-8.56V120.09a1.45,1.45,0,0,0-1.45-1.45H109a1.45,1.45,0,0,0-1.45,1.45v16.65h-9V71h32.76Zm14.83,55.42H134.16v-54H146.1Z"/><path class="a" d="M108.09,74.45H102.3a1.45,1.45,0,0,0-1.45,1.45v11a1.45,1.45,0,0,0,1.45,1.45h5.79a1.45,1.45,0,0,0,1.45-1.45v-11A1.45,1.45,0,0,0,108.09,74.45Zm-1.45,11h-2.89V77.35h2.89Z"/><path class="a" d="M117.78,74.45H112a1.44,1.44,0,0,0-1.44,1.45v11A1.44,1.44,0,0,0,112,88.37h5.79a1.45,1.45,0,0,0,1.45-1.45v-11A1.45,1.45,0,0,0,117.78,74.45Zm-1.45,11h-2.89V77.35h2.89Z"/><path class="a" d="M117.78,51.33H112a1.43,1.43,0,0,0-1.44,1.44v11A1.44,1.44,0,0,0,112,65.25h5.79a1.45,1.45,0,0,0,1.45-1.45v-11A1.44,1.44,0,0,0,117.78,51.33Zm-1.45,11h-2.89V54.22h2.89Z"/><path class="a" d="M120.24,75.9v11a1.45,1.45,0,0,0,1.45,1.45h5.78a1.45,1.45,0,0,0,1.45-1.45v-11a1.45,1.45,0,0,0-1.45-1.45h-5.78A1.45,1.45,0,0,0,120.24,75.9Zm2.9,1.45H126v8.12h-2.89Z"/><path class="a" d="M102.3,91.38a1.45,1.45,0,0,0-1.45,1.45V99.4a1.45,1.45,0,1,0,2.9,0V92.83A1.45,1.45,0,0,0,102.3,91.38Z"/><path class="a" d="M107.34,91.38a1.45,1.45,0,0,0-1.45,1.45V99.4a1.45,1.45,0,1,0,2.89,0V92.83A1.44,1.44,0,0,0,107.34,91.38Z"/><path class="a" d="M112.37,91.38a1.45,1.45,0,0,0-1.45,1.45V99.4a1.45,1.45,0,1,0,2.9,0V92.83A1.45,1.45,0,0,0,112.37,91.38Z"/><path class="a" d="M117.41,91.38A1.45,1.45,0,0,0,116,92.83V99.4a1.45,1.45,0,1,0,2.89,0V92.83A1.44,1.44,0,0,0,117.41,91.38Z"/><path class="a" d="M122.44,91.38A1.45,1.45,0,0,0,121,92.83V99.4a1.45,1.45,0,1,0,2.9,0V92.83A1.45,1.45,0,0,0,122.44,91.38Z"/><path class="a" d="M127.47,91.38A1.44,1.44,0,0,0,126,92.83V99.4a1.45,1.45,0,1,0,2.89,0V92.83A1.45,1.45,0,0,0,127.47,91.38Z"/><path class="a" d="M102.3,102.29a1.45,1.45,0,0,0-1.45,1.45v6.57a1.45,1.45,0,0,0,2.9,0v-6.57A1.45,1.45,0,0,0,102.3,102.29Z"/><path class="a" d="M107.34,102.29a1.45,1.45,0,0,0-1.45,1.45v6.57a1.45,1.45,0,1,0,2.89,0v-6.57A1.44,1.44,0,0,0,107.34,102.29Z"/><path class="a" d="M112.37,102.29a1.45,1.45,0,0,0-1.45,1.45v6.57a1.45,1.45,0,0,0,2.9,0v-6.57A1.45,1.45,0,0,0,112.37,102.29Z"/><path class="a" d="M117.41,102.29a1.45,1.45,0,0,0-1.45,1.45v6.57a1.45,1.45,0,1,0,2.89,0v-6.57A1.44,1.44,0,0,0,117.41,102.29Z"/><path class="a" d="M122.44,102.29a1.45,1.45,0,0,0-1.45,1.45v6.57a1.45,1.45,0,0,0,2.9,0v-6.57A1.45,1.45,0,0,0,122.44,102.29Z"/><path class="a" d="M127.47,102.29a1.44,1.44,0,0,0-1.44,1.45v6.57a1.45,1.45,0,1,0,2.89,0v-6.57A1.45,1.45,0,0,0,127.47,102.29Z"/><path class="a" d="M87.13,96.24a1.45,1.45,0,0,0,1.45-1.45V88.23a1.45,1.45,0,1,0-2.9,0v6.56A1.45,1.45,0,0,0,87.13,96.24Z"/><path class="a" d="M92.16,96.24a1.45,1.45,0,0,0,1.45-1.45V88.23a1.45,1.45,0,1,0-2.9,0v6.56A1.45,1.45,0,0,0,92.16,96.24Z"/><path class="a" d="M87.13,108a1.45,1.45,0,0,0,1.45-1.45V100a1.45,1.45,0,0,0-2.9,0v6.57A1.45,1.45,0,0,0,87.13,108Z"/><path class="a" d="M92.16,108a1.45,1.45,0,0,0,1.45-1.45V100a1.45,1.45,0,0,0-2.9,0v6.57A1.45,1.45,0,0,0,92.16,108Z"/><path class="a" d="M137.61,96.24a1.45,1.45,0,0,0,1.45-1.45V88.23a1.45,1.45,0,1,0-2.89,0v6.56A1.44,1.44,0,0,0,137.61,96.24Z"/><path class="a" d="M142.65,96.24a1.45,1.45,0,0,0,1.45-1.45V88.23a1.45,1.45,0,1,0-2.9,0v6.56A1.45,1.45,0,0,0,142.65,96.24Z"/><path class="a" d="M137.61,108a1.45,1.45,0,0,0,1.45-1.45V100a1.45,1.45,0,0,0-2.89,0v6.57A1.44,1.44,0,0,0,137.61,108Z"/><path class="a" d="M142.65,108a1.45,1.45,0,0,0,1.45-1.45V100a1.45,1.45,0,0,0-2.9,0v6.57A1.45,1.45,0,0,0,142.65,108Z"/><path class="a" d="M328.12,98c-.38.09-9.35,2.33-12.62,11.14a19.79,19.79,0,0,0-1,8.48c-1,1.5-2.07,3.08-3,4.66V108.47a12.67,12.67,0,0,0,2.47-1.8,10.42,10.42,0,0,0,3.4-7.76c0-6.73-5.91-14.77-6.16-15.11a1.43,1.43,0,0,0-1.16-.58,1.46,1.46,0,0,0-1.17.58c-.25.34-6.15,8.38-6.15,15.11a10.41,10.41,0,0,0,3.39,7.76,12.69,12.69,0,0,0,2.48,1.8v13.77c-.91-1.58-1.93-3.16-3-4.66a19.79,19.79,0,0,0-1-8.48c-3.28-8.81-12.24-11-12.62-11.14a1.45,1.45,0,0,0-1.72,1.84,29.91,29.91,0,0,1,1.08,5.65c0,.53.05,1.07.06,1.63.05,2.4.11,5.11,2.62,7.28,2.82,2.44,7.13,4,8.91,4.5,2.89,4.12,4.78,7.58,5.47,10.08a1.22,1.22,0,0,0,.14.33v8.92a1.45,1.45,0,0,0,2.9,0v-8.92a1.62,1.62,0,0,0,.13-.33c.7-2.5,2.58-6,5.48-10.08,1.77-.55,6.09-2.06,8.9-4.5,2.52-2.17,2.57-4.88,2.62-7.28,0-.56,0-1.1.07-1.63a29.23,29.23,0,0,1,1.08-5.65A1.45,1.45,0,0,0,328.12,98ZM297,111.07s1.2,1.37,2.82,3.42a16.61,16.61,0,0,1-3.73-2.32c-1.47-1.26-1.57-2.78-1.62-5.15,0-.58,0-1.18-.07-1.79a29.54,29.54,0,0,0-.52-3.55,15.39,15.39,0,0,1,8.17,8.43,14.09,14.09,0,0,1,.79,3.54c-2-2.54-3.51-4.31-3.67-4.49a1.45,1.45,0,1,0-2.17,1.91Zm13.16-14.18a1.44,1.44,0,0,0-1.45,1.44V105a7.68,7.68,0,0,1-3-6.09c0-2.34.95-5.38,2.75-8.78.59-1.12,1.19-2.11,1.68-2.88.48.76,1.07,1.74,1.65,2.84,1.82,3.42,2.77,6.47,2.77,8.82a7.67,7.67,0,0,1-3,6.09V98.33A1.44,1.44,0,0,0,310.11,96.89Zm15.76,8.34c-.05.61-.06,1.21-.07,1.79-.05,2.37-.16,3.89-1.62,5.15a17.07,17.07,0,0,1-3.73,2.32c1.61-2,2.8-3.4,2.82-3.42a1.45,1.45,0,1,0-2.18-1.91c-.16.18-1.71,2-3.67,4.49a14,14,0,0,1,7.05-11,19.32,19.32,0,0,1,1.92-1A27.65,27.65,0,0,0,325.87,105.23Z"/><path class="a" d="M283.35,109.32a30.12,30.12,0,0,1,1.08-5.65,1.45,1.45,0,0,0-.32-1.42,1.46,1.46,0,0,0-1.4-.42c-.38.09-9.34,2.33-12.61,11.13a19.84,19.84,0,0,0-1,8.49c-1,1.49-2.07,3.08-3,4.66V110.89a1.56,1.56,0,0,0,.14-.33c.69-2.5,2.58-6,5.48-10.08,1.77-.55,6.09-2.07,8.9-4.5,2.51-2.18,2.57-4.89,2.62-7.28,0-.57,0-1.11.06-1.63a29.91,29.91,0,0,1,1.08-5.65,1.45,1.45,0,0,0-.32-1.42,1.46,1.46,0,0,0-1.4-.42c-.38.09-9.34,2.33-12.61,11.13a19.82,19.82,0,0,0-1,8.49c-1,1.49-2.07,3.08-3,4.65V90.08a12.28,12.28,0,0,0,2.48-1.8,10.41,10.41,0,0,0,3.4-7.76c0-6.72-5.91-14.76-6.16-15.1a1.47,1.47,0,0,0-1.17-.59,1.45,1.45,0,0,0-1.16.59c-.25.34-6.16,8.38-6.16,15.1a10.41,10.41,0,0,0,3.4,7.76,12.28,12.28,0,0,0,2.48,1.8v13.77c-.91-1.57-1.94-3.16-3-4.65a19.82,19.82,0,0,0-1-8.49c-3.27-8.8-12.23-11-12.61-11.13a1.46,1.46,0,0,0-1.4.42,1.45,1.45,0,0,0-.32,1.42,29.7,29.7,0,0,1,1.08,5.65c0,.52.05,1.06.06,1.63,0,2.39.11,5.1,2.62,7.28,2.81,2.43,7.13,4,8.9,4.5,2.9,4.11,4.79,7.58,5.48,10.08a1.56,1.56,0,0,0,.14.33v15.22c-.91-1.58-1.94-3.17-3-4.66a19.83,19.83,0,0,0-1-8.49c-3.27-8.8-12.23-11-12.61-11.13a1.46,1.46,0,0,0-1.4.42,1.45,1.45,0,0,0-.32,1.42,29.7,29.7,0,0,1,1.08,5.65c0,.53.05,1.06.06,1.63,0,2.39.11,5.11,2.62,7.28,2.81,2.43,7.13,4,8.9,4.5,2.9,4.11,4.79,7.58,5.48,10.08a1.22,1.22,0,0,0,.14.33v5.05a1.45,1.45,0,1,0,2.89,0v-5.05a1.22,1.22,0,0,0,.14-.33c.69-2.5,2.58-6,5.48-10.08,1.77-.55,6.09-2.07,8.9-4.5,2.51-2.17,2.57-4.89,2.62-7.28C283.3,110.38,283.31,109.85,283.35,109.32Zm-10.54-17.6a14.62,14.62,0,0,1,6.26-7.4,18.52,18.52,0,0,1,1.91-1,29.94,29.94,0,0,0-.51,3.55c-.05.61-.06,1.22-.08,1.8-.05,2.37-.15,3.88-1.61,5.15A16.87,16.87,0,0,1,275,96.1c1.62-2,2.81-3.4,2.83-3.42a1.45,1.45,0,0,0-2.18-1.91c-.16.18-1.71,2-3.67,4.5A14.26,14.26,0,0,1,272.81,91.72Zm-21.27,1s1.21,1.38,2.83,3.42a16.87,16.87,0,0,1-3.74-2.31c-1.46-1.27-1.57-2.78-1.61-5.15,0-.58,0-1.19-.08-1.8a29.94,29.94,0,0,0-.51-3.55,18.52,18.52,0,0,1,1.91,1,14,14,0,0,1,7,10.94c-2-2.53-3.51-4.31-3.67-4.49a1.45,1.45,0,0,0-2.18,1.91Zm0,22.26s1.21,1.37,2.83,3.42a16.91,16.91,0,0,1-3.74-2.32c-1.46-1.27-1.57-2.78-1.61-5.15,0-.58,0-1.19-.08-1.8a30.25,30.25,0,0,0-.51-3.55,18.52,18.52,0,0,1,1.91,1,14,14,0,0,1,7,10.94c-2-2.53-3.51-4.3-3.67-4.49a1.44,1.44,0,0,0-2-.13A1.46,1.46,0,0,0,251.54,114.94ZM264.7,78.5A1.45,1.45,0,0,0,263.26,80v6.66a7.63,7.63,0,0,1-3-6.09c0-2.34,1-5.37,2.75-8.77.59-1.12,1.18-2.11,1.68-2.88.48.76,1.07,1.73,1.65,2.84,1.81,3.41,2.77,6.46,2.77,8.81a7.63,7.63,0,0,1-3,6.09V80A1.45,1.45,0,0,0,264.7,78.5Zm15.77,30.59c-.05.61-.06,1.22-.08,1.8-.05,2.37-.15,3.88-1.61,5.15a17.29,17.29,0,0,1-3.74,2.32c1.62-2,2.81-3.41,2.83-3.42a1.46,1.46,0,0,0-.14-2,1.44,1.44,0,0,0-2,.13c-.16.19-1.71,2-3.67,4.49a14,14,0,0,1,7.05-10.94,18.52,18.52,0,0,1,1.91-1A30.25,30.25,0,0,0,280.47,109.09Z"/><path class="a" d="M288.86,114h0a1.45,1.45,0,0,0-1.19.63c-.19.27-4.64,6.82-4.61,11.82a7.21,7.21,0,0,0,4.28,6.61v5.15a1.45,1.45,0,0,0,1.44,1.45h0a1.46,1.46,0,0,0,1.45-1.44v-5a7.23,7.23,0,0,0,4.55-6.8c0-5-4.55-11.5-4.74-11.78A1.45,1.45,0,0,0,288.86,114Zm1.48,15.78-.1.07v-2.24a1.45,1.45,0,0,0-1.45-1.45h0a1.45,1.45,0,0,0-1.45,1.45v2a4.1,4.1,0,0,1-1.4-3.19c0-2.52,1.62-6,2.93-8.27,1.34,2.29,3,5.72,3,8.23A4.14,4.14,0,0,1,290.34,129.76Z"/><path class="a" d="M227.26,88.57H189.38a5.51,5.51,0,0,0-5.5,5.51v4.64h-8c-2,0-3.81,1.71-4.53,3.4L165.22,116a1.43,1.43,0,0,0-.12.58v0h0v8.69a3.48,3.48,0,0,0,.61,6.9h1a9.39,9.39,0,0,0,18.37,0h23.73a9.39,9.39,0,0,0,18.37,0h2.14a3.48,3.48,0,0,0,3.48-3.48V94.08A5.51,5.51,0,0,0,227.26,88.57ZM166.53,129.3h-.82a.58.58,0,0,1,0-1.16h1A9,9,0,0,0,166.53,129.3Zm9.34,7.44a6.49,6.49,0,1,1,6.49-6.49A6.5,6.5,0,0,1,175.87,136.74Zm8-11.5h-.07a9.38,9.38,0,0,0-15.81-.1v-8.25l6-13.61v0c.33-.76,1.21-1.64,1.87-1.64h8Zm24.74,4.06H185.21a9,9,0,0,0-.19-1.16h23.8A9.07,9.07,0,0,0,208.62,129.3Zm9.35,7.44a6.49,6.49,0,1,1,6.49-6.49A6.5,6.5,0,0,1,218,136.74Zm11.9-8a.58.58,0,0,1-.58.58h-2a9.07,9.07,0,0,0-.2-1.16h2.76Zm0-3.48h-4a9.38,9.38,0,0,0-15.87,0H186.77V100.53a1.42,1.42,0,0,0,0-.36,1.5,1.5,0,0,0,0-.37V94.08a2.61,2.61,0,0,1,2.61-2.61h37.88a2.61,2.61,0,0,1,2.61,2.61Z"/><path class="a" d="M175.18,102.81a6,6,0,0,0-.34.66l-5.43,12.35a1.45,1.45,0,0,0,.12,1.37,1.44,1.44,0,0,0,1.21.66h10.52a1.45,1.45,0,0,0,1.45-1.45V103.55a1.45,1.45,0,0,0-1.45-1.45h-4.84A1.44,1.44,0,0,0,175.18,102.81Zm2.15,2.19h2.49v10H173Z"/><path class="a" d="M218,126.42a3.83,3.83,0,1,0,3.83,3.83A3.84,3.84,0,0,0,218,126.42Zm0,4.76a.93.93,0,1,1,.93-.93A.93.93,0,0,1,218,131.18Z"/><path class="a" d="M175.87,126.42a3.83,3.83,0,1,0,3.83,3.83A3.84,3.84,0,0,0,175.87,126.42Zm0,4.76a.93.93,0,1,1,.93-.93A.93.93,0,0,1,175.87,131.18Z"/><path class="a" d="M141.45,43.69h1.2V44.9a1.45,1.45,0,0,0,2.9,0V43.69h1.2a1.45,1.45,0,1,0,0-2.89h-1.2V39.59a1.45,1.45,0,0,0-2.9,0V40.8h-1.2a1.45,1.45,0,1,0,0,2.89Z"/><path class="a" d="M294.52,62.47A1.44,1.44,0,0,0,296,61v-.4h.41a1.45,1.45,0,0,0,0-2.9H296v-.4a1.45,1.45,0,1,0-2.89,0v.4h-.4a1.45,1.45,0,1,0,0,2.9h.4V61A1.45,1.45,0,0,0,294.52,62.47Z"/><path class="a" d="M331.26,58.4a1.45,1.45,0,0,0-2.87,0,1.45,1.45,0,0,0,0,2.87,1.45,1.45,0,0,0,2.87,0,1.45,1.45,0,0,0,0-2.87Z"/><path class="a" d="M30.69,39.55a1.45,1.45,0,0,0,2.87,0,1.45,1.45,0,0,0,0-2.88,1.45,1.45,0,0,0-2.87,0,1.45,1.45,0,0,0,0,2.88Z"/><path class="a" d="M180,32.37a1.45,1.45,0,0,0,2.87,0,1.46,1.46,0,0,0,1.26-1.44,1.45,1.45,0,0,0-1.26-1.43,1.45,1.45,0,0,0-2.87,0,1.44,1.44,0,0,0-1.25,1.43A1.45,1.45,0,0,0,180,32.37Z"/><path class="a" d="M55.14,25.5h1.21v1.21a1.45,1.45,0,1,0,2.89,0V25.5h1.21a1.45,1.45,0,1,0,0-2.89H59.24V21.4a1.45,1.45,0,1,0-2.89,0v1.21H55.14a1.45,1.45,0,1,0,0,2.89Z"/><path class="a" d="M343.64,21.91v1a1.45,1.45,0,1,0,2.9,0v-1h1a1.45,1.45,0,1,0,0-2.89h-1V18a1.45,1.45,0,1,0-2.9,0v1h-1a1.45,1.45,0,1,0,0,2.89Z"/><path class="a" d="M284.68,38.93h14.51a1.45,1.45,0,0,0,0-2.9H284.68a1.45,1.45,0,1,0,0,2.9Z"/><path class="a" d="M305.65,38.93h6.85a1.45,1.45,0,0,0,0-2.9h-6.85a1.45,1.45,0,1,0,0,2.9Z"/><path class="a" d="M309.51,42.8a1.45,1.45,0,0,0-1.45-1.45H292.74a1.45,1.45,0,0,0,0,2.89h15.32A1.44,1.44,0,0,0,309.51,42.8Z"/><path class="a" d="M183.49,51a1.45,1.45,0,0,0,1.45,1.45h26.75a1.45,1.45,0,0,0,0-2.9H184.94A1.45,1.45,0,0,0,183.49,51Z"/><path class="a" d="M189,55.4a1.45,1.45,0,1,0,0,2.89H204.3a1.45,1.45,0,1,0,0-2.89Z"/><path class="a" d="M200.73,46.57h7.9a1.45,1.45,0,0,0,0-2.9h-7.9a1.45,1.45,0,0,0,0,2.9Z"/><path class="a" d="M190.29,46.57h4.08a1.45,1.45,0,0,0,0-2.9h-4.08a1.45,1.45,0,1,0,0,2.9Z"/><path class="a" d="M92.55,20.22a1.45,1.45,0,0,0-1.45-1.45H80.59a1.45,1.45,0,0,0,0,2.9H91.1A1.45,1.45,0,0,0,92.55,20.22Z"/><path class="a" d="M66.9,14.46H93.63a1.45,1.45,0,1,0,0-2.9H66.9a1.45,1.45,0,0,0,0,2.9Z"/><path class="a" d="M87.77,16.61h0a1.44,1.44,0,0,0-1.44-1.44H71.68a1.45,1.45,0,1,0,0,2.89H86.33A1.44,1.44,0,0,0,87.77,16.61Z"/><path class="a" d="M1036.34,30.93a1.46,1.46,0,0,0,1.25,1.44,1.45,1.45,0,0,0,2.88,0,1.46,1.46,0,0,0,1.25-1.44,1.45,1.45,0,0,0-1.25-1.43,1.45,1.45,0,0,0-2.88,0A1.45,1.45,0,0,0,1036.34,30.93Z"/><path class="a" d="M1032.87,13.86h.4v.4a1.45,1.45,0,0,0,2.9,0v-.4h.4a1.45,1.45,0,1,0,0-2.9h-.4v-.4a1.45,1.45,0,0,0-2.9,0V11h-.4a1.45,1.45,0,0,0,0,2.9Z"/><path class="a" d="M214.3,76.78a1.45,1.45,0,0,0,1.45-1.45v-.4h.4a1.45,1.45,0,0,0,0-2.9h-.4v-.4a1.45,1.45,0,1,0-2.89,0V72h-.41a1.45,1.45,0,0,0,0,2.9h.41v.4A1.44,1.44,0,0,0,214.3,76.78Z"/><path class="a" d="M263.4,32.66h.73v.72a1.45,1.45,0,1,0,2.9,0v-.72h.72a1.45,1.45,0,0,0,0-2.9H267V29a1.45,1.45,0,1,0-2.9,0v.73h-.73a1.45,1.45,0,1,0,0,2.9Z"/><path class="a" d="M933.93,13.86h.4v.4a1.45,1.45,0,1,0,2.89,0v-.4h.41a1.45,1.45,0,0,0,0-2.9h-.41v-.4a1.45,1.45,0,1,0-2.89,0V11h-.4a1.45,1.45,0,1,0,0,2.9Z"/><path class="a" d="M964.63,24.05h27.81a1.45,1.45,0,0,0,0-2.9H964.63a1.45,1.45,0,0,0,0,2.9Z"/><path class="a" d="M1001.52,29.23a1.45,1.45,0,0,0,0-2.9h-20a1.45,1.45,0,1,0,0,2.9Z"/><path class="a" d="M526.74,64.5h5.32a1.44,1.44,0,0,0,1.44-1.45V55.29a1.44,1.44,0,0,0-1.44-1.45h-5.32a1.45,1.45,0,0,0-1.44,1.45v7.76A1.45,1.45,0,0,0,526.74,64.5Zm1.45-7.77h2.42V61.6h-2.42Z"/><path class="a" d="M537.25,64.5h5.31A1.45,1.45,0,0,0,544,63.05V55.29a1.45,1.45,0,0,0-1.45-1.45h-5.31a1.45,1.45,0,0,0-1.45,1.45v7.76A1.45,1.45,0,0,0,537.25,64.5Zm1.45-7.77h2.41V61.6H538.7Z"/><path class="a" d="M547.75,64.5h5.31a1.45,1.45,0,0,0,1.45-1.45V55.29a1.45,1.45,0,0,0-1.45-1.45h-5.31a1.45,1.45,0,0,0-1.45,1.45v7.76A1.45,1.45,0,0,0,547.75,64.5Zm1.45-7.77h2.41V61.6H549.2Z"/><path class="a" d="M558.25,64.5h5.31A1.45,1.45,0,0,0,565,63.05V55.29a1.45,1.45,0,0,0-1.45-1.45h-5.31a1.45,1.45,0,0,0-1.45,1.45v7.76A1.45,1.45,0,0,0,558.25,64.5Zm1.45-7.77h2.42V61.6H559.7Z"/><path class="a" d="M567.31,55.29v7.76a1.45,1.45,0,0,0,1.45,1.45h5.31a1.45,1.45,0,0,0,1.45-1.45V55.29a1.45,1.45,0,0,0-1.45-1.45h-5.31A1.45,1.45,0,0,0,567.31,55.29Zm2.89,1.44h2.42V61.6H570.2Z"/><path class="a" d="M526.74,77.67h5.32a1.43,1.43,0,0,0,1.44-1.44V68.46A1.44,1.44,0,0,0,532.06,67h-5.32a1.45,1.45,0,0,0-1.44,1.45v7.77A1.44,1.44,0,0,0,526.74,77.67Zm1.45-7.76h2.42v4.87h-2.42Z"/><path class="a" d="M537.25,77.67h5.31A1.44,1.44,0,0,0,544,76.23V68.46A1.45,1.45,0,0,0,542.56,67h-5.31a1.45,1.45,0,0,0-1.45,1.45v7.77A1.44,1.44,0,0,0,537.25,77.67Zm1.45-7.76h2.41v4.87H538.7Z"/><path class="a" d="M547.75,77.67h5.31a1.44,1.44,0,0,0,1.45-1.44V68.46A1.45,1.45,0,0,0,553.06,67h-5.31a1.45,1.45,0,0,0-1.45,1.45v7.77A1.44,1.44,0,0,0,547.75,77.67Zm1.45-7.76h2.41v4.87H549.2Z"/><path class="a" d="M558.25,77.67h5.31A1.44,1.44,0,0,0,565,76.23V68.46A1.45,1.45,0,0,0,563.56,67h-5.31a1.45,1.45,0,0,0-1.45,1.45v7.77A1.44,1.44,0,0,0,558.25,77.67Zm1.45-7.76h2.42v4.87H559.7Z"/><path class="a" d="M574.07,67h-5.31a1.45,1.45,0,0,0-1.45,1.45v7.77a1.44,1.44,0,0,0,1.45,1.44h5.31a1.44,1.44,0,0,0,1.45-1.44V68.46A1.45,1.45,0,0,0,574.07,67Zm-1.45,7.77H570.2V69.91h2.42Z"/><path class="a" d="M526.74,104h5.32a1.43,1.43,0,0,0,1.44-1.44V94.81a1.44,1.44,0,0,0-1.44-1.45h-5.32a1.45,1.45,0,0,0-1.44,1.45v7.77A1.44,1.44,0,0,0,526.74,104Zm1.45-7.76h2.42v4.87h-2.42Z"/><path class="a" d="M542.56,104a1.44,1.44,0,0,0,1.45-1.44V94.81a1.45,1.45,0,0,0-1.45-1.45h-5.31a1.45,1.45,0,0,0-1.45,1.45v7.77a1.44,1.44,0,0,0,1.45,1.44Zm-3.86-7.76h2.41v4.87H538.7Z"/><path class="a" d="M553.06,104a1.44,1.44,0,0,0,1.45-1.44V94.81a1.45,1.45,0,0,0-1.45-1.45h-5.31a1.45,1.45,0,0,0-1.45,1.45v7.77a1.44,1.44,0,0,0,1.45,1.44Zm-3.86-7.76h2.41v4.87H549.2Z"/><path class="a" d="M563.56,104a1.44,1.44,0,0,0,1.45-1.44V94.81a1.45,1.45,0,0,0-1.45-1.45h-5.31a1.45,1.45,0,0,0-1.45,1.45v7.77a1.44,1.44,0,0,0,1.45,1.44Zm-3.86-7.76h2.42v4.87H559.7Z"/><path class="a" d="M574.07,93.36h-5.31a1.45,1.45,0,0,0-1.45,1.45v7.77a1.44,1.44,0,0,0,1.45,1.44h5.31a1.44,1.44,0,0,0,1.45-1.44V94.81A1.45,1.45,0,0,0,574.07,93.36Zm-1.45,7.77H570.2V96.26h2.42Z"/><path class="a" d="M532.06,119.71h-5.32a1.45,1.45,0,0,0-1.44,1.45v7.77a1.44,1.44,0,0,0,1.44,1.44h5.32a1.43,1.43,0,0,0,1.44-1.44v-7.77A1.44,1.44,0,0,0,532.06,119.71Zm-1.45,7.77h-2.42v-4.87h2.42Z"/><path class="a" d="M542.56,119.71h-5.31a1.45,1.45,0,0,0-1.45,1.45v7.77a1.44,1.44,0,0,0,1.45,1.44h5.31a1.44,1.44,0,0,0,1.45-1.44v-7.77A1.45,1.45,0,0,0,542.56,119.71Zm-1.45,7.77H538.7v-4.87h2.41Z"/><path class="a" d="M553.06,119.71h-5.31a1.45,1.45,0,0,0-1.45,1.45v7.77a1.44,1.44,0,0,0,1.45,1.44h5.31a1.44,1.44,0,0,0,1.45-1.44v-7.77A1.45,1.45,0,0,0,553.06,119.71Zm-1.45,7.77H549.2v-4.87h2.41Z"/><path class="a" d="M563.56,119.71h-5.31a1.45,1.45,0,0,0-1.45,1.45v7.77a1.44,1.44,0,0,0,1.45,1.44h5.31a1.44,1.44,0,0,0,1.45-1.44v-7.77A1.45,1.45,0,0,0,563.56,119.71Zm-1.44,7.77H559.7v-4.87h2.42Z"/><path class="a" d="M574.07,119.71h-5.31a1.45,1.45,0,0,0-1.45,1.45v7.77a1.44,1.44,0,0,0,1.45,1.44h5.31a1.44,1.44,0,0,0,1.45-1.44v-7.77A1.45,1.45,0,0,0,574.07,119.71Zm-1.45,7.77H570.2v-4.87h2.42Z"/><path class="a" d="M574.07,80.19H526.74a1.45,1.45,0,0,0,0,2.89h47.33a1.45,1.45,0,1,0,0-2.89Z"/><path class="a" d="M574.07,88H526.74a1.45,1.45,0,0,0,0,2.9h47.33a1.45,1.45,0,0,0,0-2.9Z"/><path class="a" d="M574.07,84.07H526.74a1.45,1.45,0,0,0,0,2.9h47.33a1.45,1.45,0,0,0,0-2.9Z"/><path class="a" d="M563.12,38.67H537.69a1.45,1.45,0,0,0,0,2.9h25.43a1.45,1.45,0,1,0,0-2.9Z"/><path class="a" d="M563.12,42.56H537.69a1.45,1.45,0,1,0,0,2.89h25.43a1.45,1.45,0,1,0,0-2.89Z"/><path class="a" d="M574.07,106.54H526.74a1.45,1.45,0,0,0,0,2.89h47.33a1.45,1.45,0,1,0,0-2.89Z"/><path class="a" d="M574.07,114.3H526.74a1.45,1.45,0,0,0,0,2.9h47.33a1.45,1.45,0,0,0,0-2.9Z"/><path class="a" d="M574.07,110.42H526.74a1.45,1.45,0,0,0,0,2.9h47.33a1.45,1.45,0,0,0,0-2.9Z"/><path class="a" d="M726.73,24.06l-1.6-.2h0a37.1,37.1,0,0,0-4.77-.32A29.14,29.14,0,0,0,704.47,28a24.66,24.66,0,0,0-2.68,2V8.78h0a1.45,1.45,0,0,0,1.27-2.15,8.35,8.35,0,0,0-1.68-2.08l-.09-.09C698.76,2.15,694.61.67,690,.34h0l-.54,0h-2.7l-.55,0h0c-4.65.33-8.8,1.81-11.36,4.12l-.08.09A8.13,8.13,0,0,0,673,6.63a1.45,1.45,0,0,0,.56,2,1.52,1.52,0,0,0,.7.18h0V30a25.69,25.69,0,0,0-2.68-2,29.51,29.51,0,0,0-15.89-4.46,37,37,0,0,0-4.77.32h0l-1.6.2a1.45,1.45,0,0,0,.17,2.89h.16v83.45H645.9V37.28a1.45,1.45,0,0,0-1.45-1.45h-8.77V27.45A1.45,1.45,0,0,0,634.23,26H630.1V18.06a1.45,1.45,0,0,0-1.44-1.45h-11V6.15a1.45,1.45,0,0,0-2.9,0V16.61h-11a1.44,1.44,0,0,0-1.44,1.45V26h-4.13a1.45,1.45,0,0,0-1.45,1.45v8.38H587.9a1.44,1.44,0,0,0-1.44,1.45v73.11h-3.78v-62A1.45,1.45,0,0,0,581.23,47H570.47V35.7A1.43,1.43,0,0,0,569,34.26h-6.65l-2.83-5V19.47a1.39,1.39,0,0,0-.38-1l-7.32-8V5.06a1.45,1.45,0,1,0-2.89,0V10.5l-7.32,8a1.44,1.44,0,0,0-.38,1v9.27a1,1,0,0,0-.15.24l-2.72,5.28h-6.6a1.44,1.44,0,0,0-1.45,1.44V47H519.58a1.45,1.45,0,0,0-1.45,1.45v89.77a1.45,1.45,0,0,0,1.45,1.45H725a1.45,1.45,0,0,0,1.45-1.45V26.94h.15a1.45,1.45,0,0,0,.18-2.89ZM551.85,14.79l4.8,5.25v8.15h-4.8Zm0,16.3h5.41l1.8,3.17h-7.21Zm-7.69-11,4.8-5.25v13.4h-4.8Zm-.88,11.05H549v3.17h-7.31Zm-10,6.06h34.35V47H533.23Zm46.55,74.69v24.9H521V49.87h58.75Zm55.75-73.11H643v10h-7.48Zm0,12.91H643v2.23h-7.48Zm0,5.13H643V70.55h-7.48Zm0,16.67H643v2.24h-7.48Zm0,5.13H643V92.35h-7.48Zm0,16.68H643v2.23h-7.48Zm0,5.13H643v10h-7.48ZM605.15,19.51h22.06V26H605.15Zm-5.57,9.39h33.2v6.93h-33.2Zm24,68.58V95.25h9v2.23Zm9,2.9v10h-9v-10Zm-9-8V78.57h9V92.35Zm0-16.67V73.44h9v2.24Zm0-5.13V56.77h9V70.55Zm0-16.68V51.64h9v2.23Zm0-5.13v-10h9v10ZM611.66,97.48V95.25h9v2.23Zm9,2.9v10h-9v-10Zm-9-8V78.57h9V92.35Zm0-16.67V73.44h9v2.24Zm0-5.13V56.77h9V70.55Zm0-16.68V51.64h9v2.23Zm0-5.13v-10h9v10ZM599.72,97.48V95.25h9v2.23Zm9,2.9v10h-9v-10Zm-9-8V78.57h9V92.35Zm0-16.67V73.44h9v2.24Zm0-5.13V56.77h9V70.55Zm0-16.68V51.64h9v2.23Zm0-5.13v-10h9v10Zm-10.37-10h7.48v10h-7.48Zm0,12.91h7.48v2.23h-7.48Zm0,5.13h7.48V70.55h-7.48Zm0,16.67h7.48v2.24h-7.48Zm0,5.13h7.48V92.35h-7.48Zm0,16.68h7.48v2.23h-7.48Zm0,5.13h7.48v10h-7.48Zm7.88,36.36h-7.88V119.67h7.88Zm22.89,0h-7.88V119.67h7.88Zm22.89,0h-7.88V119.67H643Zm6.67,0H645.9V118.22a1.45,1.45,0,0,0-1.45-1.45H633.68a1.44,1.44,0,0,0-1.44,1.45v18.52H623V118.22a1.45,1.45,0,0,0-1.44-1.45H610.79a1.44,1.44,0,0,0-1.44,1.45v18.52h-9.23V118.22a1.44,1.44,0,0,0-1.44-1.45H587.9a1.44,1.44,0,0,0-1.44,1.45v18.52h-3.78V113.29h67Zm24.61,0H652.57V26.59q1.6-.15,3.15-.15a26.23,26.23,0,0,1,14.22,3.92A20.89,20.89,0,0,1,674.29,34Zm24.6-103.3v103.3H677.18V129.4a1.47,1.47,0,0,0,1.31.82h2.28a1.45,1.45,0,0,0,0-2.9h-2.28a1.47,1.47,0,0,0-1.31.82v-8.71a1.47,1.47,0,0,0,1.31.82h2.28a1.45,1.45,0,0,0,0-2.9h-2.28a1.47,1.47,0,0,0-1.31.82v-8.72a1.45,1.45,0,0,0,1.31.82h2.28a1.45,1.45,0,0,0,0-2.89h-2.28a1.45,1.45,0,0,0-1.31.82V99.48a1.47,1.47,0,0,0,1.31.82h2.28a1.45,1.45,0,0,0,0-2.9h-2.28a1.47,1.47,0,0,0-1.31.82V89.51a1.47,1.47,0,0,0,1.31.82h2.28a1.45,1.45,0,0,0,0-2.9h-2.28a1.45,1.45,0,0,0-1.31.82V79.53a1.45,1.45,0,0,0,1.31.82h2.28a1.45,1.45,0,0,0,0-2.9h-2.28a1.47,1.47,0,0,0-1.31.82V69.56a1.47,1.47,0,0,0,1.31.82h2.28a1.45,1.45,0,0,0,0-2.9h-2.28a1.47,1.47,0,0,0-1.31.82V59.58a1.45,1.45,0,0,0,1.31.82h2.28a1.45,1.45,0,0,0,0-2.89h-2.28a1.45,1.45,0,0,0-1.31.82V13.94h21.71Zm0-22.4H677.18V6.21l0,0,0,0,.23-.17,0,0,.27-.18h0A13.05,13.05,0,0,1,679.16,5h0l.36-.17h0l.36-.16.12,0,.24-.09.23-.09.07,0a21.72,21.72,0,0,1,6.53-1.22H689a21.59,21.59,0,0,1,6.52,1.22l.07,0,.23.09.25.09.11,0,.37.16h0l.36.17h0a12.24,12.24,0,0,1,1.35.76h0l.27.18,0,0,.23.17,0,0,0,0Zm24.61,125.7H701.79V34c1.35-1.53,7.39-7.53,18.57-7.53,1,0,2.08,0,3.14.15Z"/><path class="a" d="M679.68,31.16h5.08a1.45,1.45,0,0,0,1.45-1.45V19.32a1.45,1.45,0,0,0-1.45-1.45h-5.08a1.44,1.44,0,0,0-1.44,1.45V29.71A1.44,1.44,0,0,0,679.68,31.16Zm1.45-10.4h2.18v7.5h-2.18Z"/><path class="a" d="M691.2,31.16h5.19a1.45,1.45,0,0,0,1.45-1.45V19.32a1.45,1.45,0,0,0-1.45-1.45H691.2a1.45,1.45,0,0,0-1.45,1.45V29.71A1.45,1.45,0,0,0,691.2,31.16Zm1.45-10.4h2.29v7.5h-2.29Z"/><path class="a" d="M679.68,48.82h5.08a1.44,1.44,0,0,0,1.45-1.44V37a1.44,1.44,0,0,0-1.45-1.44h-5.08A1.43,1.43,0,0,0,678.24,37v10.4A1.43,1.43,0,0,0,679.68,48.82Zm1.45-10.39h2.18v7.5h-2.18Z"/><path class="a" d="M691.2,48.82h5.19a1.44,1.44,0,0,0,1.45-1.44V37a1.44,1.44,0,0,0-1.45-1.44H691.2A1.44,1.44,0,0,0,689.75,37v10.4A1.44,1.44,0,0,0,691.2,48.82Zm1.45-10.39h2.29v7.5h-2.29Z"/><path class="a" d="M663.29,32.57A1.45,1.45,0,0,0,661.84,34v99.74a1.45,1.45,0,1,0,2.9,0V34A1.45,1.45,0,0,0,663.29,32.57Z"/><path class="a" d="M683.86,52.38a1.44,1.44,0,0,0-1.44,1.45v79.93a1.45,1.45,0,1,0,2.89,0V53.83A1.45,1.45,0,0,0,683.86,52.38Z"/><path class="a" d="M713.54,32.57A1.45,1.45,0,0,0,712.09,34v99.74a1.45,1.45,0,1,0,2.89,0V34A1.45,1.45,0,0,0,713.54,32.57Z"/><path class="a" d="M685.34,59a1.44,1.44,0,0,0,1.45,1.44h2.28a1.45,1.45,0,0,0,0-2.89h-2.28A1.45,1.45,0,0,0,685.34,59Z"/><path class="a" d="M695.09,57.51a1.45,1.45,0,0,0-1.43,1.2V53.83a1.45,1.45,0,1,0-2.9,0v79.93a1.45,1.45,0,0,0,2.9,0V129a1.45,1.45,0,0,0,1.43,1.2h2.28a1.45,1.45,0,0,0,0-2.9h-2.28a1.45,1.45,0,0,0-1.43,1.2v-9.47a1.45,1.45,0,0,0,1.43,1.2h2.28a1.45,1.45,0,0,0,0-2.9h-2.28a1.45,1.45,0,0,0-1.43,1.2v-9.48a1.45,1.45,0,0,0,1.43,1.2h2.28a1.45,1.45,0,0,0,0-2.89h-2.28a1.44,1.44,0,0,0-1.43,1.2V99.1a1.45,1.45,0,0,0,1.43,1.2h2.28a1.45,1.45,0,0,0,0-2.9h-2.28a1.45,1.45,0,0,0-1.43,1.2V89.13a1.45,1.45,0,0,0,1.43,1.2h2.28a1.45,1.45,0,0,0,0-2.9h-2.28a1.45,1.45,0,0,0-1.43,1.2V79.15a1.45,1.45,0,0,0,1.43,1.2h2.28a1.45,1.45,0,0,0,0-2.9h-2.28a1.45,1.45,0,0,0-1.43,1.21V69.18a1.45,1.45,0,0,0,1.43,1.2h2.28a1.45,1.45,0,0,0,0-2.9h-2.28a1.45,1.45,0,0,0-1.43,1.2V59.2a1.44,1.44,0,0,0,1.43,1.2h2.28a1.45,1.45,0,0,0,0-2.89Z"/><path class="a" d="M689.07,67.48h-2.28a1.45,1.45,0,1,0,0,2.9h2.28a1.45,1.45,0,0,0,0-2.9Z"/><path class="a" d="M689.07,77.45h-2.28a1.45,1.45,0,1,0,0,2.9h2.28a1.45,1.45,0,0,0,0-2.9Z"/><path class="a" d="M689.07,87.43h-2.28a1.45,1.45,0,1,0,0,2.9h2.28a1.45,1.45,0,0,0,0-2.9Z"/><path class="a" d="M689.07,97.4h-2.28a1.45,1.45,0,1,0,0,2.9h2.28a1.45,1.45,0,0,0,0-2.9Z"/><path class="a" d="M689.07,107.38h-2.28a1.45,1.45,0,1,0,0,2.89h2.28a1.45,1.45,0,0,0,0-2.89Z"/><path class="a" d="M689.07,117.35h-2.28a1.45,1.45,0,1,0,0,2.9h2.28a1.45,1.45,0,0,0,0-2.9Z"/><path class="a" d="M689.07,127.32h-2.28a1.45,1.45,0,0,0,0,2.9h2.28a1.45,1.45,0,0,0,0-2.9Z"/><path class="a" d="M660.19,37.56h-2.28a1.45,1.45,0,1,0,0,2.9h2.28a1.45,1.45,0,0,0,0-2.9Z"/><path class="a" d="M668.49,37.56h-2.28a1.45,1.45,0,0,0,0,2.9h2.28a1.45,1.45,0,1,0,0-2.9Z"/><path class="a" d="M660.19,47.53h-2.28a1.45,1.45,0,1,0,0,2.9h2.28a1.45,1.45,0,0,0,0-2.9Z"/><path class="a" d="M668.49,47.53h-2.28a1.45,1.45,0,0,0,0,2.9h2.28a1.45,1.45,0,1,0,0-2.9Z"/><path class="a" d="M660.19,57.51h-2.28a1.45,1.45,0,1,0,0,2.89h2.28a1.45,1.45,0,1,0,0-2.89Z"/><path class="a" d="M668.49,57.51h-2.28a1.45,1.45,0,1,0,0,2.89h2.28a1.45,1.45,0,1,0,0-2.89Z"/><path class="a" d="M660.19,67.48h-2.28a1.45,1.45,0,1,0,0,2.9h2.28a1.45,1.45,0,0,0,0-2.9Z"/><path class="a" d="M668.49,67.48h-2.28a1.45,1.45,0,0,0,0,2.9h2.28a1.45,1.45,0,1,0,0-2.9Z"/><path class="a" d="M660.19,77.45h-2.28a1.45,1.45,0,1,0,0,2.9h2.28a1.45,1.45,0,0,0,0-2.9Z"/><path class="a" d="M668.49,77.45h-2.28a1.45,1.45,0,0,0,0,2.9h2.28a1.45,1.45,0,1,0,0-2.9Z"/><path class="a" d="M660.19,87.43h-2.28a1.45,1.45,0,1,0,0,2.9h2.28a1.45,1.45,0,0,0,0-2.9Z"/><path class="a" d="M668.49,87.43h-2.28a1.45,1.45,0,0,0,0,2.9h2.28a1.45,1.45,0,1,0,0-2.9Z"/><path class="a" d="M660.19,97.4h-2.28a1.45,1.45,0,1,0,0,2.9h2.28a1.45,1.45,0,0,0,0-2.9Z"/><path class="a" d="M668.49,97.4h-2.28a1.45,1.45,0,0,0,0,2.9h2.28a1.45,1.45,0,1,0,0-2.9Z"/><path class="a" d="M660.19,107.38h-2.28a1.45,1.45,0,1,0,0,2.89h2.28a1.45,1.45,0,1,0,0-2.89Z"/><path class="a" d="M668.49,107.38h-2.28a1.45,1.45,0,1,0,0,2.89h2.28a1.45,1.45,0,1,0,0-2.89Z"/><path class="a" d="M660.19,117.35h-2.28a1.45,1.45,0,1,0,0,2.9h2.28a1.45,1.45,0,0,0,0-2.9Z"/><path class="a" d="M668.49,117.35h-2.28a1.45,1.45,0,0,0,0,2.9h2.28a1.45,1.45,0,1,0,0-2.9Z"/><path class="a" d="M660.19,127.32h-2.28a1.45,1.45,0,0,0,0,2.9h2.28a1.45,1.45,0,1,0,0-2.9Z"/><path class="a" d="M668.49,127.32h-2.28a1.45,1.45,0,0,0,0,2.9h2.28a1.45,1.45,0,1,0,0-2.9Z"/><path class="a" d="M710.44,37.56h-2.28a1.45,1.45,0,1,0,0,2.9h2.28a1.45,1.45,0,0,0,0-2.9Z"/><path class="a" d="M718.74,37.56h-2.28a1.45,1.45,0,0,0,0,2.9h2.28a1.45,1.45,0,0,0,0-2.9Z"/><path class="a" d="M710.44,47.53h-2.28a1.45,1.45,0,1,0,0,2.9h2.28a1.45,1.45,0,0,0,0-2.9Z"/><path class="a" d="M718.74,47.53h-2.28a1.45,1.45,0,0,0,0,2.9h2.28a1.45,1.45,0,0,0,0-2.9Z"/><path class="a" d="M710.44,57.51h-2.28a1.45,1.45,0,1,0,0,2.89h2.28a1.45,1.45,0,0,0,0-2.89Z"/><path class="a" d="M718.74,57.51h-2.28a1.45,1.45,0,1,0,0,2.89h2.28a1.45,1.45,0,0,0,0-2.89Z"/><path class="a" d="M710.44,67.48h-2.28a1.45,1.45,0,1,0,0,2.9h2.28a1.45,1.45,0,0,0,0-2.9Z"/><path class="a" d="M718.74,67.48h-2.28a1.45,1.45,0,0,0,0,2.9h2.28a1.45,1.45,0,0,0,0-2.9Z"/><path class="a" d="M710.44,77.45h-2.28a1.45,1.45,0,1,0,0,2.9h2.28a1.45,1.45,0,0,0,0-2.9Z"/><path class="a" d="M718.74,77.45h-2.28a1.45,1.45,0,0,0,0,2.9h2.28a1.45,1.45,0,0,0,0-2.9Z"/><path class="a" d="M710.44,87.43h-2.28a1.45,1.45,0,1,0,0,2.9h2.28a1.45,1.45,0,0,0,0-2.9Z"/><path class="a" d="M718.74,87.43h-2.28a1.45,1.45,0,0,0,0,2.9h2.28a1.45,1.45,0,0,0,0-2.9Z"/><path class="a" d="M710.44,97.4h-2.28a1.45,1.45,0,1,0,0,2.9h2.28a1.45,1.45,0,0,0,0-2.9Z"/><path class="a" d="M718.74,97.4h-2.28a1.45,1.45,0,0,0,0,2.9h2.28a1.45,1.45,0,0,0,0-2.9Z"/><path class="a" d="M710.44,107.38h-2.28a1.45,1.45,0,1,0,0,2.89h2.28a1.45,1.45,0,0,0,0-2.89Z"/><path class="a" d="M718.74,107.38h-2.28a1.45,1.45,0,1,0,0,2.89h2.28a1.45,1.45,0,0,0,0-2.89Z"/><path class="a" d="M710.44,117.35h-2.28a1.45,1.45,0,1,0,0,2.9h2.28a1.45,1.45,0,0,0,0-2.9Z"/><path class="a" d="M718.74,117.35h-2.28a1.45,1.45,0,0,0,0,2.9h2.28a1.45,1.45,0,0,0,0-2.9Z"/><path class="a" d="M710.44,127.32h-2.28a1.45,1.45,0,0,0,0,2.9h2.28a1.45,1.45,0,0,0,0-2.9Z"/><path class="a" d="M718.74,127.32h-2.28a1.45,1.45,0,0,0,0,2.9h2.28a1.45,1.45,0,0,0,0-2.9Z"/><path class="a" d="M480.46,56.52a29.39,29.39,0,0,0-28.4,21.88,21.88,21.88,0,0,0-5.15-3.2,21.38,21.38,0,1,0-10,40.92v22.07a1.45,1.45,0,1,0,2.89,0V116.12a21.11,21.11,0,0,0,11-3.92,21.33,21.33,0,0,0,6.79-8,29.48,29.48,0,0,0,21.49,11v23a1.45,1.45,0,1,0,2.9,0v-23a29.37,29.37,0,0,0-1.45-58.7Zm-31.41,53.32a18.28,18.28,0,0,1-9.28,3.38v-6.6L450.89,95.5a1.45,1.45,0,1,0-2.05-2l-9.07,9.07V92.85l4.72-4.72a1.44,1.44,0,0,0,0-2,1.46,1.46,0,0,0-2.05,0l-2.67,2.67V83.42a1.45,1.45,0,1,0-2.89,0v5.22l-2.56-2.56a1.45,1.45,0,1,0-2.05,2l4.61,4.6v9.67l-8.95-9a1.46,1.46,0,0,0-2.05,0,1.44,1.44,0,0,0,0,2l11,11v6.72a18.48,18.48,0,0,1,1.44-36.91,18.28,18.28,0,0,1,13.07,5.41,30.32,30.32,0,0,0-.29,4.17,29.14,29.14,0,0,0,4.46,15.58A18.44,18.44,0,0,1,449.05,109.84Zm50.13-5.23a26.31,26.31,0,0,1-17.27,7.71v-7.47l20.34-20.34a1.46,1.46,0,0,0,0-2.05,1.44,1.44,0,0,0-2.05,0l-18.29,18.29V89.61l11-11a1.44,1.44,0,0,0,0-2,1.46,1.46,0,0,0-2.05,0l-8.95,9V75.84l4.6-4.6a1.45,1.45,0,0,0-2-2l-2.56,2.56V66.53a1.45,1.45,0,0,0-2.9,0v5.33l-2.66-2.67a1.46,1.46,0,0,0-2.05,0,1.44,1.44,0,0,0,0,2L479,76v9.67L470,76.56a1.46,1.46,0,0,0-2.05,0,1.44,1.44,0,0,0,0,2L479,89.73v11.14l-18.4-18.41a1.44,1.44,0,0,0-2.05,0,1.46,1.46,0,0,0,0,2.05L479,105v7.36a26.46,26.46,0,1,1,20.17-7.71Z"/><path class="a" d="M856.51,97.8a8.92,8.92,0,0,0-8.25-12.31,8.66,8.66,0,0,0-2.38.33,11.73,11.73,0,0,0-15.21-5.5,12.86,12.86,0,0,0-4.14-4.78,12.91,12.91,0,0,0-11.7-18.39,12.71,12.71,0,0,0-4.07.66,17.22,17.22,0,0,0-31.37,0,12.77,12.77,0,0,0-4.08-.66,12.93,12.93,0,0,0-11.7,18.39,12.86,12.86,0,0,0-4.14,4.78,11.72,11.72,0,0,0-15.2,5.5,8.67,8.67,0,0,0-2.39-.33,8.92,8.92,0,0,0-8.24,12.31A8.91,8.91,0,0,0,737,113.53a11.7,11.7,0,0,0,16.5,7.13v17.53a1.45,1.45,0,1,0,2.9,0V120.72a10.34,10.34,0,0,0,4.86,1.2,11.51,11.51,0,0,0,1.54-.11,11.72,11.72,0,0,0,9.66-8.28,8.9,8.9,0,0,0,6.81-7.75,9.61,9.61,0,0,0,4.21-1.8,8.82,8.82,0,0,0,2.53-3l3.15,3.15-1.46,34a1.45,1.45,0,0,0,1.45,1.51h11.92a1.45,1.45,0,0,0,1.45-1.51l-1.46-34,3.13-3.14a9.06,9.06,0,0,0,2.45,2.93,9.3,9.3,0,0,0,4.2,1.83,8.89,8.89,0,0,0,6.8,7.76,11.72,11.72,0,0,0,9.67,8.28,11.48,11.48,0,0,0,1.53.11,10.38,10.38,0,0,0,4.87-1.2v17.47a1.45,1.45,0,1,0,2.89,0V120.66a11.71,11.71,0,0,0,16.5-7.13,8.91,8.91,0,0,0,3.39-15.73Zm-85.37,13h0l-.11,0h0l-.09,0-.06,0-.07,0a.15.15,0,0,0-.07,0l-.06,0-.06,0-.06,0,0,0-.06,0,0,0a.12.12,0,0,0-.05.05s0,0,0,0l-.06.07,0,0a.18.18,0,0,0,0,.07l0,0a.43.43,0,0,0,0,.07l0,.06,0,.06,0,.08,0,0a.44.44,0,0,0,0,.1,0,0,0,0,0,0,0,8.82,8.82,0,0,1-7.46,7,7.61,7.61,0,0,1-6-1.65v-3.35l9.5-9.5a1.45,1.45,0,1,0-2-2l-7.45,7.45V105l5.24-5.13a1.45,1.45,0,1,0-2-2.07l-3.21,3.15V96.82L759,94.21a1.45,1.45,0,0,0-2-2l-.56.57V91a1.45,1.45,0,1,0-2.9,0v1.65l-.49-.5a1.46,1.46,0,0,0-2,0,1.44,1.44,0,0,0,0,2l2.54,2.54v4l-4.27-4.27a1.45,1.45,0,1,0-2,2l6.32,6.32v4.89L743.74,100a1.45,1.45,0,0,0-2,2.05l11.83,11.83v3.4A8.82,8.82,0,0,1,739.61,112a0,0,0,0,0,0,0,.44.44,0,0,0,0-.1l0,0,0-.08,0-.06,0-.06a.16.16,0,0,0,0-.07l0,0a.18.18,0,0,0,0-.07l0,0-.05-.07s0,0,0,0l-.06-.05,0,0,0,0-.06,0a.1.1,0,0,1,0,0l-.07,0-.06,0a.15.15,0,0,0-.07,0l-.07,0-.05,0-.1,0h0l-.11,0h0a6,6,0,0,1-2.16-11.27,1.44,1.44,0,0,0,.71-.89,1.48,1.48,0,0,0-.16-1.13,6,6,0,0,1,5.13-9.16,5.91,5.91,0,0,1,2.56.57,1.45,1.45,0,0,0,2-.83,8.82,8.82,0,0,1,12-5.08,12.53,12.53,0,0,0-.37,3.07,12.9,12.9,0,0,0,10.32,12.65,9.52,9.52,0,0,0,7.94,7.06A6,6,0,0,1,771.14,110.84Zm27.44-8.29a1.48,1.48,0,0,0-.43,1.09l1.43,33.1h-8.9l1.42-33.1a1.43,1.43,0,0,0-.42-1.09L778.16,89a12.58,12.58,0,0,0,3.69-3.65,1.43,1.43,0,0,0,.38.66l12,12a1.46,1.46,0,0,0,2,0l12.34-12.34A12.7,12.7,0,0,0,812.1,89Zm-14.1-18.36a7.07,7.07,0,0,0,5.74-3.06,9.28,9.28,0,0,0,4.91-1.83A9.28,9.28,0,0,0,800,81.13a7,7,0,0,0,5.82,3.06h.24L795.29,95ZM812.54,103a6.34,6.34,0,0,1-6.13-4.21l8.46-8.45a12.47,12.47,0,0,0,8.18,0,1.45,1.45,0,0,0-.95-2.74,9.69,9.69,0,0,1-12.32-5.95v0l0-.07,0-.07v0l0,0,0-.08,0,0,0-.06,0,0,0-.06-.06,0,0,0-.06,0,0,0-.07,0-.05,0-.07,0-.05,0-.07,0-.06,0-.07,0h-.07l-.07,0h-.48l-.09,0h-.05l-.09,0,0,0h0l-.07,0-.07,0h0a4.17,4.17,0,0,1-5.59-1.79h0a.56.56,0,0,0,0-.08l0,0,0-.06,0-.06s0,0,0,0l-.06-.07h0l-.09-.09h0l-.1-.08-.06,0-.06,0-.11,0h0l-.12,0h0l-.09,0,0,0h-.31a6.54,6.54,0,0,1-4.66-1.94,1.45,1.45,0,0,0-1-.42h-.12a1.45,1.45,0,0,0-1,.42,6.55,6.55,0,0,1-4.67,1.94h-.3l-.05,0-.09,0h0l-.11,0h0l-.1,0-.06,0-.06,0-.09.07h0a.6.6,0,0,0-.08.08l0,0-.06.07,0,0a.21.21,0,0,1,0,.06l0,.06,0,0,0,.09h0a4.17,4.17,0,0,1-5.59,1.79h0l-.07,0-.07,0h0l0,0-.08,0h-.06l-.08,0h-.49l-.06,0h-.07l-.07,0-.06,0-.07,0,0,0-.07,0,0,0L781,81l0,0-.06,0,0,0s0,0-.05,0l0,.06,0,0-.05.06,0,0,0,.08,0,0v0l0,.07,0,.07v0a9.7,9.7,0,0,1-12.32,5.95,1.45,1.45,0,0,0-.95,2.74,12.47,12.47,0,0,0,8.18,0l8.44,8.44A6.39,6.39,0,0,1,777.6,103a6.6,6.6,0,0,1-6.52-5.71,1.42,1.42,0,0,0-1.26-1.24,10,10,0,0,1-3.6-18.75,1.49,1.49,0,0,0,.71-.9,1.45,1.45,0,0,0-.17-1.13A10,10,0,0,1,779.57,61a1.45,1.45,0,0,0,2-.83,14.32,14.32,0,0,1,27,0,1.42,1.42,0,0,0,.8.86,1.47,1.47,0,0,0,1.18,0,10,10,0,0,1,12.81,14.29,1.49,1.49,0,0,0-.16,1.13,1.47,1.47,0,0,0,.7.9,10,10,0,0,1-3.59,18.75,1.44,1.44,0,0,0-1.27,1.24A6.59,6.59,0,0,1,812.54,103Zm39.24,7.82h0l-.11,0h0l-.09,0-.06,0-.07,0-.07,0-.06,0-.06,0-.06,0,0,0-.06,0s0,0,0,0l-.05.05s0,0,0,0l-.06.07,0,0,0,.07,0,0s0,0,0,.08l0,.06,0,.06,0,.08s0,0,0,0a.3.3,0,0,1,0,.1v0a8.82,8.82,0,0,1-13.91,5.29v-3.4L848.45,102a1.44,1.44,0,0,0,0-2.05,1.46,1.46,0,0,0-2.05,0l-9.78,9.78v-4.89l6.32-6.32a1.44,1.44,0,0,0,0-2,1.46,1.46,0,0,0-2.05,0l-4.27,4.27v-4l2.55-2.54a1.45,1.45,0,0,0-2-2l-.5.5V91a1.45,1.45,0,1,0-2.89,0v1.72l-.56-.57a1.46,1.46,0,0,0-2,0,1.44,1.44,0,0,0,0,2l2.61,2.61v4.08l-3.22-3.15a1.45,1.45,0,1,0-2,2.07l5.24,5.13v4.89l-7.45-7.45a1.46,1.46,0,0,0-2,0,1.44,1.44,0,0,0,0,2l9.5,9.5v3.35a7.63,7.63,0,0,1-6,1.65,8.84,8.84,0,0,1-7.46-7v0l0-.1s0,0,0,0l0-.08,0-.06s0,0,0-.06l0-.07,0,0a.18.18,0,0,0,0-.07l0,0-.05-.07s0,0,0,0l-.06-.05,0,0,0,0-.06,0a.1.1,0,0,1,0,0l-.07,0-.06,0-.06,0-.07,0-.06,0-.09,0h-.05l-.11,0h0a6,6,0,0,1-5.23-5,9.52,9.52,0,0,0,7.94-7.06,12.91,12.91,0,0,0,10-15.72,8.74,8.74,0,0,1,3.71-.82,8.84,8.84,0,0,1,8.33,5.9,1.45,1.45,0,0,0,.8.86,1.47,1.47,0,0,0,1.18,0,6,6,0,0,1,2.56-.57,6,6,0,0,1,5.14,9.16,1.44,1.44,0,0,0-.17,1.13,1.47,1.47,0,0,0,.71.89,6,6,0,0,1-2.16,11.27Z"/><path class="a" d="M450.84,33a1.91,1.91,0,0,0,1.09.37,1.76,1.76,0,0,0,1.46-.73,1.8,1.8,0,0,0-.49-2.55A14.48,14.48,0,0,1,447,20.75a1.72,1.72,0,0,0-2.07-1.45,1.7,1.7,0,0,0-1.45,2.06A18.32,18.32,0,0,0,450.84,33Z"/><path class="a" d="M476,18.21a13.76,13.76,0,0,1-1.57,6.55,1.84,1.84,0,0,0,3.27,1.7,17.39,17.39,0,0,0,1.94-8.13,18.11,18.11,0,0,0-1-5.71,1.84,1.84,0,0,0-3.52,1.09A11,11,0,0,1,476,18.21Z"/><path class="a" d="M461,3.64h.36a14.44,14.44,0,0,1,10.32,4.25,1.83,1.83,0,0,0,1.33.48,1.85,1.85,0,0,0,1.34-.48,1.78,1.78,0,0,0,0-2.55A18.19,18.19,0,0,0,461.52,0h-.36a1.87,1.87,0,0,0-1.82,1.82A1.85,1.85,0,0,0,461,3.64Z"/><path class="a" d="M458.73,36.17a18.4,18.4,0,0,0,2.67.24,18.21,18.21,0,0,0,10.8-3.52A1.82,1.82,0,1,0,470,30a14.76,14.76,0,0,1-8.62,2.91,11.15,11.15,0,0,1-2.06-.12,1.81,1.81,0,0,0-2.07,1.58A1.52,1.52,0,0,0,458.73,36.17Z"/><path class="a" d="M445.26,15.05c.12,0,.36.12.48.12a1.78,1.78,0,0,0,1.7-1.33,14.59,14.59,0,0,1,7-8.62,1.82,1.82,0,0,0,.73-2.43,1.82,1.82,0,0,0-2.43-.73,18.8,18.8,0,0,0-8.86,10.68A1.88,1.88,0,0,0,445.26,15.05Z"/><path class="a" d="M461.4,26.46A7.7,7.7,0,0,1,455.69,24a1.8,1.8,0,1,0-2.54,2.55,12,12,0,0,0,8.37,3.52h.24a1.87,1.87,0,0,0,1.82-1.82,2,2,0,0,0-2.06-1.82Z"/><path class="a" d="M471.35,16.39a1.86,1.86,0,0,0-1.82,1.82A8.17,8.17,0,0,1,467.1,24a1.78,1.78,0,0,0,0,2.55,2,2,0,0,0,1.34.61,1.39,1.39,0,0,0,1.21-.49,11.51,11.51,0,0,0,3.52-8.49A1.86,1.86,0,0,0,471.35,16.39Z"/><path class="a" d="M453,10.07a11.59,11.59,0,0,0-3.39,8.26v.36a1.82,1.82,0,0,0,3.64,0v-.24a8.33,8.33,0,0,1,2.3-5.71,1.75,1.75,0,0,0,0-2.54A1.68,1.68,0,0,0,453,10.07Z"/><path class="a" d="M461,10.2a8,8,0,0,1,6.19,2.54,1.9,1.9,0,0,0,1.33.61,1.55,1.55,0,0,0,1.21-.48,1.76,1.76,0,0,0,0-2.55,11.62,11.62,0,0,0-8.49-3.64h-.49a1.72,1.72,0,0,0-1.7,1.94A2,2,0,0,0,461,10.2Z"/><path class="a" d="M458.61,22.82a1.31,1.31,0,0,0,1,.24,2.07,2.07,0,0,0,1.58-.85,2,2,0,0,0-.61-2.55,1.5,1.5,0,0,1-.73-1,1.84,1.84,0,0,0-3.52,1.09A5,5,0,0,0,458.61,22.82Z"/><path class="a" d="M459.82,17a2.27,2.27,0,0,0,.85-.24,1.75,1.75,0,0,1,.73-.24h.48a1.86,1.86,0,1,0,.73-3.64c-.36,0-.6-.13-1-.13h-.24a5.6,5.6,0,0,0-2.43.61,2,2,0,0,0-.85,2.43A1.77,1.77,0,0,0,459.82,17Z"/><path class="a" d="M464.07,22.33a2,2,0,0,0,1.33-.6,5.32,5.32,0,0,0,1.34-3.52,1.82,1.82,0,0,0-3.64,0,2.21,2.21,0,0,1-.37,1.09,1.78,1.78,0,0,0,.25,2.55A1.32,1.32,0,0,0,464.07,22.33Z"/><path class="a" d="M862.22,57.72h-.4v-.4a1.45,1.45,0,0,0-2.9,0v.4h-.4a1.45,1.45,0,1,0,0,2.9h.4V61a1.45,1.45,0,0,0,2.9,0v-.4h.4a1.45,1.45,0,0,0,0-2.9Z"/><path class="a" d="M894.24,61.27a1.45,1.45,0,0,0,2.87,0,1.45,1.45,0,0,0,0-2.87,1.45,1.45,0,0,0-2.87,0,1.45,1.45,0,0,0,0,2.87Z"/><path class="a" d="M908.5,21.91h1v1a1.45,1.45,0,1,0,2.89,0v-1h1a1.45,1.45,0,1,0,0-2.89h-1V18a1.45,1.45,0,1,0-2.89,0v1h-1a1.45,1.45,0,1,0,0,2.89Z"/><path class="a" d="M850.54,38.93h14.51a1.45,1.45,0,1,0,0-2.9H850.54a1.45,1.45,0,1,0,0,2.9Z"/><path class="a" d="M871.5,38.93h6.86a1.45,1.45,0,0,0,0-2.9H871.5a1.45,1.45,0,0,0,0,2.9Z"/><path class="a" d="M873.92,41.35H858.6a1.45,1.45,0,1,0,0,2.89h15.32a1.45,1.45,0,1,0,0-2.89Z"/><path class="a" d="M759.21,29.57H797.1a1.45,1.45,0,0,0,1.45-1.49,10.53,10.53,0,0,0-10.16-10.19,13.9,13.9,0,0,0-24.26,2.73,7.62,7.62,0,0,0-6.37,7.5,1.48,1.48,0,0,0,.43,1A1.45,1.45,0,0,0,759.21,29.57Zm6-6.15a1.46,1.46,0,0,0,1.34-1,11,11,0,0,1,19.82-2.32,1.44,1.44,0,0,0,1.3.69h.37a7.6,7.6,0,0,1,7.41,5.89H760.88A4.68,4.68,0,0,1,765.22,23.42Z"/><path class="a" d="M1233.9,35.42a1.46,1.46,0,0,0-1.44,1.25,1.45,1.45,0,0,0,0,2.88,1.46,1.46,0,0,0,1.44,1.25,1.45,1.45,0,0,0,1.43-1.25,1.45,1.45,0,0,0,0-2.88A1.45,1.45,0,0,0,1233.9,35.42Z"/><path class="a" d="M1205.21,25.5h1.2v1.21a1.45,1.45,0,1,0,2.9,0V25.5h1.2a1.45,1.45,0,1,0,0-2.89h-1.2V21.4a1.45,1.45,0,1,0-2.9,0v1.21h-1.2a1.45,1.45,0,1,0,0,2.89Z"/><path class="a" d="M1243.57,20.22a1.45,1.45,0,0,0-1.45-1.45h-10.51a1.45,1.45,0,0,0,0,2.9h10.51A1.45,1.45,0,0,0,1243.57,20.22Z"/><path class="a" d="M1217.91,14.46h26.74a1.45,1.45,0,0,0,0-2.9h-26.74a1.45,1.45,0,0,0,0,2.9Z"/><path class="a" d="M1238.79,16.61h0a1.45,1.45,0,0,0-1.45-1.44h-14.65a1.45,1.45,0,1,0,0,2.89h14.65A1.45,1.45,0,0,0,1238.79,16.61Z"/><path class="a" d="M201.55,25.21h21.5a5.33,5.33,0,0,0-1.31,3.53,1.44,1.44,0,0,0,1.45,1.44h24.18a1.43,1.43,0,0,0,1-.44,1.41,1.41,0,0,0,.4-1,7.22,7.22,0,0,0-6.72-7,9.33,9.33,0,0,0-7.54-3.8,9.59,9.59,0,0,0-3.3.59A8.68,8.68,0,0,0,225,15.32a11.37,11.37,0,0,0-19.71,2.2,6.35,6.35,0,0,0-5.17,6.24A1.45,1.45,0,0,0,201.55,25.21Zm33-4.41a6.43,6.43,0,0,1,5.53,3.1,1.44,1.44,0,0,0,1.31.68h.2a4.31,4.31,0,0,1,4,2.71H225.1a2.46,2.46,0,0,1,1.94-1,1.46,1.46,0,0,0,1.34-1A6.46,6.46,0,0,1,234.55,20.8Zm-28.2-.49a1.46,1.46,0,0,0,1.34-1A8.48,8.48,0,0,1,223,17.52a1.44,1.44,0,0,0,1.31.69h.21A5.75,5.75,0,0,1,228.68,20a9.34,9.34,0,0,0-2.1,2.37H203.31A3.44,3.44,0,0,1,206.35,20.31Z"/><path class="a" d="M64.5,80.17A12.23,12.23,0,0,0,53.4,62.85a12,12,0,0,0-3.78.6A16.28,16.28,0,0,0,34.85,54H34.8A16.28,16.28,0,0,0,20,63.45a12,12,0,0,0-3.78-.6A12.23,12.23,0,0,0,5.15,80.17a12.22,12.22,0,0,0,4.6,21.93A16.28,16.28,0,0,0,23.26,114a17.57,17.57,0,0,0,2.17.14,16.31,16.31,0,0,0,7.66-1.91v26a1.45,1.45,0,1,0,2.89,0V111.85a16.34,16.34,0,0,0,8.24,2.24,17.57,17.57,0,0,0,2.17-.14A16.28,16.28,0,0,0,59.9,102.1a12.22,12.22,0,0,0,4.6-21.93Zm-6,19.22h-.14l-.06,0-.07,0-.07,0-.06,0-.08,0,0,0-.07,0-.05,0-.06.05-.05,0,0,.05-.05,0,0,0,0,.06,0,0-.05.07,0,0a.16.16,0,0,0,0,.07l0,.06,0,.06,0,.08s0,0,0,.05a.44.44,0,0,0,0,.1s0,0,0,0a13.36,13.36,0,0,1-20.78,8.22,1.32,1.32,0,0,0-.32-.66,1.1,1.1,0,0,0-.22-.21v-5L53.22,85.62a1.45,1.45,0,0,0-2-2.05L36,98.76V89.9l9.3-9.3a1.45,1.45,0,1,0-2.05-2L36,85.8V78.18l3.85-3.85a1.45,1.45,0,0,0-2-2L36,74.09V70.17a1.45,1.45,0,1,0-2.89,0v4l-1.91-1.91a1.45,1.45,0,0,0-2,2l4,4V86l-5.73-5.61a1.45,1.45,0,1,0-2,2.07L33.09,90v8.86L21.25,87a1.44,1.44,0,0,0-2.05,0,1.46,1.46,0,0,0,0,2L33.09,103v5.82a13.35,13.35,0,0,1-20.74-8.24v0a.44.44,0,0,0,0-.1s0,0,0-.05l0-.08,0-.06,0-.06a.16.16,0,0,0,0-.07l0,0-.05-.07,0,0L12,99.86l0,0-.05,0-.05-.05,0,0a.18.18,0,0,0-.07-.05l0,0a.2.2,0,0,0-.08,0l0,0-.08,0-.06,0-.07,0-.07,0-.06,0H11.1A9.32,9.32,0,0,1,7.76,82a1.42,1.42,0,0,0,.7-.89,1.4,1.4,0,0,0-.16-1.13,9.33,9.33,0,0,1,11.92-13.3,1.41,1.41,0,0,0,1.17,0,1.46,1.46,0,0,0,.81-.86,13.35,13.35,0,0,1,5.5-6.88l.18-.09a13.3,13.3,0,0,1,6.49-1.95h.91a13.3,13.3,0,0,1,6.49,1.95l.18.09a13.35,13.35,0,0,1,5.5,6.88,1.46,1.46,0,0,0,.81.86,1.41,1.41,0,0,0,1.17,0,9.32,9.32,0,0,1,11.92,13.3,1.4,1.4,0,0,0-.16,1.13,1.42,1.42,0,0,0,.7.89,9.32,9.32,0,0,1-3.34,17.44Z"/></svg>